Download .... Seed .... Enjoy
 
http://imgon.net/di-QIQU.gif

Video
ID : 1
Format : AVC
Format/Info: Advanced Video Codec
Format profile : High@L3.0
Format settings, CABAC : Yes
Format settings, ReFrames: 3 frames
Muxing mode: Header stripping
Codec ID : V_MPEG4/ISO/AVC
Duration : 2h 18mn
Bit rate : 550 Kbps
Width: 624 pixels
Height : 320 pixels
Display aspect ratio : 1.950
Frame rate mode: Constant
Frame rate : 29.970 fps
Color space: YUV
Chroma subsampling : 4:2:0
Bit depth: 8 bits
Scan type: Progressive
Bits/(Pixel*Frame) : 0.092
Stream size: 531 MiB (89%)
Title:
Writing library: x264 core 120 r2151 a3f4407
Encoding settings: cabac=1 / ref=3 / deblock=1:0:0 / analyse=0x3:0x113 / me=hex / subme=7 / psy=1 / psy_rd=1.00:0.00 / mixed_ref=1 / me_range=16 / chroma_me=1 / trellis=1 / 8x8dct=1 / cqm=0 / deadzone=21,11 / fast_pskip=1 / chroma_qp_offset=-2 / threads=12 / sliced_threads=0 / nr=0 / decimate=1 / interlaced=0 / bluray_compat=0 / constrained_intra=0 / bframes=3 / b_pyramid=1 / b_adapt=1 / b_bias=0 / direct=1 / weightb=1 / open_gop=0 / weightp=2 / keyint=250 / keyint_min=25 / scenecut=40 / intra_refresh=0 / rc_lookahead=40 / rc=abr / mbtree=1 / bitrate=550 / ratetol=1.0 / qcomp=0.60 / qpmin=10 / qpmax=51 / qpstep=4 / ip_ratio=1.40 / aq=1:1.00
Default: Yes
Forced : No

Audio
ID : 2
Format : AC-3
Format/Info: Audio Coding 3
Mode extension : CM (complete main)
Format settings, Endianness: Big
Muxing mode: Header stripping
Codec ID : A_AC3
Duration : 2h 18mn
Bit rate mode: Constant
Bit rate : 56.0 Kbps
Channel(s) : 2 channels
Channel positions: Front: L R
Sampling rate: 44.1 KHz
Bit depth: 16 bits
Compression mode : Lossy
Delay relative to video: -33ms
Stream size: 55.3 MiB (9%)
Title:
Default: Yes
Forced : No
 
http://imgur.com/hvSNT.jpg